<?xml version="1.0" encoding="UTF-8" standalone="no"?>
<svg
   xmlns:dc="http://purl.org/dc/elements/1.1/"
   xmlns:cc="http://creativecommons.org/ns#"
   xmlns:rdf="http://www.w3.org/1999/02/22-rdf-syntax-ns#"
   xmlns:svg="http://www.w3.org/2000/svg"
   xmlns="http://www.w3.org/2000/svg"
   xmlns:sodipodi="http://sodipodi.sourceforge.net/DTD/sodipodi-0.dtd"
   xmlns:inkscape="http://www.inkscape.org/namespaces/inkscape"
   inkscape:version="1.0 (4035a4f, 2020-05-01)"
   sodipodi:docname="revert-logo.svg"
   id="svg16"
   preserveAspectRatio="xMidYMid meet"
   viewBox="0 0 480.000000 480.000000"
   height="480.000000pt"
   width="480.000000pt"
   version="1.0">
  <defs
     id="defs20" />
  <sodipodi:namedview
     inkscape:current-layer="svg16"
     inkscape:window-maximized="0"
     inkscape:window-y="23"
     inkscape:window-x="0"
     inkscape:cy="369.92157"
     inkscape:cx="359.37104"
     inkscape:zoom="0.71747065"
     showgrid="false"
     id="namedview18"
     inkscape:window-height="1050"
     inkscape:window-width="1255"
     inkscape:pageshadow="2"
     inkscape:pageopacity="0"
     guidetolerance="10"
     gridtolerance="10"
     objecttolerance="10"
     borderopacity="1"
     bordercolor="#666666"
     pagecolor="#ffffff" />
  <metadata
     id="metadata10">
Created by potrace 1.11, written by Peter Selinger 2001-2013
<rdf:RDF>
  <cc:Work
     rdf:about="">
    <dc:format>image/svg+xml</dc:format>
    <dc:type
       rdf:resource="http://purl.org/dc/dcmitype/StillImage" />
    <dc:title></dc:title>
  </cc:Work>
</rdf:RDF>
</metadata>
  <rect
     inkscape:export-ydpi="96"
     inkscape:export-xdpi="96"
     y="-11.102041"
     x="-11.102041"
     height="600"
     width="600"
     id="rect22"
     style="fill:#ffffff;fill-opacity:1;fill-rule:evenodd;stroke-width:0.887973" />
  <g
     style="fill:#41b913;fill-opacity:1"
     id="g14"
     stroke="none"
     fill="#000000"
     transform="matrix(0.1,0,0,-0.1,48.458755,528.89342)">
    <path
       style="fill:#41b913;fill-opacity:1"
       id="path12"
       d="m 1652,4501 c -40,-10 -112,-38 -160,-61 -122,-61 -249,-188 -310,-310 -57,-116 -76,-193 -76,-321 l -1,-106 -125,-6 c -105,-4 -138,-9 -207,-34 -112,-40 -184,-86 -268,-168 -216,-212 -276,-537 -150,-812 44,-95 81,-147 159,-223 l 64,-63 -49,-45 c -87,-78 -169,-209 -203,-322 -80,-267 -2,-552 204,-743 132,-122 299,-187 482,-187 h 98 v -98 c 0,-269 133,-497 370,-635 139,-80 347,-108 514,-68 144,35 293,124 385,233 l 32,36 72,-72 c 135,-135 291,-204 478,-214 136,-6 231,14 359,75 82,39 107,58 185,137 145,146 203,280 212,488 l 6,118 h 87 c 379,0 689,298 708,681 6,136 -14,231 -75,358 -37,77 -60,109 -126,176 l -82,83 82,85 c 144,149 211,328 201,536 -10,187 -80,346 -213,476 -84,82 -156,128 -268,168 -68,24 -103,30 -204,34 l -122,6 v 98 c 0,116 -19,205 -65,302 -115,247 -345,401 -617,415 -208,10 -383,-56 -535,-201 l -86,-82 -72,71 c -83,83 -179,142 -291,180 -108,36 -284,43 -393,15 z m 259,-261 c 130,-24 256,-123 315,-247 23,-49 28,-78 35,-186 5,-70 16,-156 25,-190 19,-74 102,-239 117,-234 16,5 84,133 103,192 8,28 24,118 35,200 16,128 24,160 54,221 43,88 120,163 212,207 64,30 74,32 184,32 113,0 116,-1 191,-38 178,-88 280,-279 248,-464 -6,-38 -27,-99 -46,-138 -31,-64 -73,-109 -504,-540 l -470,-470 -470,470 c -310,309 -481,487 -499,520 -81,141 -80,317 2,457 32,55 121,139 175,167 91,46 190,60 293,41 z m -822,-820 c 35,-6 80,-20 101,-30 22,-11 254,-233 532,-509 l 493,-489 -479,-473 c -317,-315 -494,-482 -523,-497 -211,-110 -486,-16 -593,201 -114,234 -7,516 233,609 37,15 90,23 187,28 151,9 250,37 355,101 l 56,34 -23,19 c -34,27 -125,71 -198,96 -42,14 -109,24 -190,30 -177,11 -252,43 -348,144 -260,275 -72,716 318,745 8,0 44,-4 79,-9 z m 2831,-12 c 119,-35 229,-131 283,-245 30,-64 32,-75 32,-178 -1,-127 -19,-185 -83,-270 -88,-115 -191,-166 -352,-171 -132,-3 -236,-30 -354,-91 l -88,-46 23,-19 c 41,-31 161,-87 224,-103 33,-9 119,-19 191,-24 111,-7 138,-12 182,-34 117,-59 193,-147 232,-266 19,-59 22,-87 18,-168 -3,-84 -8,-107 -35,-166 -85,-179 -289,-283 -480,-243 -39,8 -92,26 -119,40 -36,18 -178,153 -519,495 l -470,471 485,486 c 344,344 499,492 532,510 81,41 202,51 298,22 z m -1013,-1710 491,-493 21,-69 c 51,-166 6,-332 -123,-454 -80,-76 -168,-115 -274,-120 -193,-10 -353,84 -435,257 -26,55 -31,79 -38,190 -10,160 -46,281 -117,389 -13,21 -16,21 -32,7 -24,-22 -87,-159 -105,-230 -8,-33 -19,-114 -24,-180 -7,-99 -13,-131 -36,-178 -41,-88 -123,-170 -212,-214 -67,-33 -85,-38 -167,-41 -109,-4 -184,16 -270,73 -165,110 -236,326 -170,518 16,43 43,78 168,207 215,222 820,830 826,830 3,0 226,-222 497,-492 z" />
  </g>
</svg>
