<?xml version="1.0" standalone="no"?>
<!DOCTYPE svg PUBLIC "-//W3C//DTD SVG 20010904//EN"
 "http://www.w3.org/TR/2001/REC-SVG-20010904/DTD/svg10.dtd">
<svg version="1.0" xmlns="http://www.w3.org/2000/svg"
 width="480.000000pt" height="480.000000pt" viewBox="0 0 480.000000 480.000000"
 preserveAspectRatio="xMidYMid meet">
<metadata>
Created by potrace 1.11, written by Peter Selinger 2001-2013
</metadata>
<g transform="translate(0.000000,480.000000) scale(0.100000,-0.100000)"
fill="#000000" stroke="none">
<path d="M1652 4501 c-40 -10 -112 -38 -160 -61 -122 -61 -249 -188 -310 -310
-57 -116 -76 -193 -76 -321 l-1 -106 -125 -6 c-105 -4 -138 -9 -207 -34 -112
-40 -184 -86 -268 -168 -216 -212 -276 -537 -150 -812 44 -95 81 -147 159
-223 l64 -63 -49 -45 c-87 -78 -169 -209 -203 -322 -80 -267 -2 -552 204 -743
132 -122 299 -187 482 -187 l98 0 0 -98 c0 -269 133 -497 370 -635 139 -80
347 -108 514 -68 144 35 293 124 385 233 l32 36 72 -72 c135 -135 291 -204
478 -214 136 -6 231 14 359 75 82 39 107 58 185 137 145 146 203 280 212 488
l6 118 87 0 c379 0 689 298 708 681 6 136 -14 231 -75 358 -37 77 -60 109
-126 176 l-82 83 82 85 c144 149 211 328 201 536 -10 187 -80 346 -213 476
-84 82 -156 128 -268 168 -68 24 -103 30 -204 34 l-122 6 0 98 c0 116 -19 205
-65 302 -115 247 -345 401 -617 415 -208 10 -383 -56 -535 -201 l-86 -82 -72
71 c-83 83 -179 142 -291 180 -108 36 -284 43 -393 15z m259 -261 c130 -24
256 -123 315 -247 23 -49 28 -78 35 -186 5 -70 16 -156 25 -190 19 -74 102
-239 117 -234 16 5 84 133 103 192 8 28 24 118 35 200 16 128 24 160 54 221
43 88 120 163 212 207 64 30 74 32 184 32 113 0 116 -1 191 -38 178 -88 280
-279 248 -464 -6 -38 -27 -99 -46 -138 -31 -64 -73 -109 -504 -540 l-470 -470
-470 470 c-310 309 -481 487 -499 520 -81 141 -80 317 2 457 32 55 121 139
175 167 91 46 190 60 293 41z m-822 -820 c35 -6 80 -20 101 -30 22 -11 254
-233 532 -509 l493 -489 -479 -473 c-317 -315 -494 -482 -523 -497 -211 -110
-486 -16 -593 201 -114 234 -7 516 233 609 37 15 90 23 187 28 151 9 250 37
355 101 l56 34 -23 19 c-34 27 -125 71 -198 96 -42 14 -109 24 -190 30 -177
11 -252 43 -348 144 -260 275 -72 716 318 745 8 0 44 -4 79 -9z m2831 -12
c119 -35 229 -131 283 -245 30 -64 32 -75 32 -178 -1 -127 -19 -185 -83 -270
-88 -115 -191 -166 -352 -171 -132 -3 -236 -30 -354 -91 l-88 -46 23 -19 c41
-31 161 -87 224 -103 33 -9 119 -19 191 -24 111 -7 138 -12 182 -34 117 -59
193 -147 232 -266 19 -59 22 -87 18 -168 -3 -84 -8 -107 -35 -166 -85 -179
-289 -283 -480 -243 -39 8 -92 26 -119 40 -36 18 -178 153 -519 495 l-470 471
485 486 c344 344 499 492 532 510 81 41 202 51 298 22z m-1013 -1710 l491
-493 21 -69 c51 -166 6 -332 -123 -454 -80 -76 -168 -115 -274 -120 -193 -10
-353 84 -435 257 -26 55 -31 79 -38 190 -10 160 -46 281 -117 389 -13 21 -16
21 -32 7 -24 -22 -87 -159 -105 -230 -8 -33 -19 -114 -24 -180 -7 -99 -13
-131 -36 -178 -41 -88 -123 -170 -212 -214 -67 -33 -85 -38 -167 -41 -109 -4
-184 16 -270 73 -165 110 -236 326 -170 518 16 43 43 78 168 207 215 222 820
830 826 830 3 0 226 -222 497 -492z"/>
</g>
</svg>
