<?xml version="1.0" encoding="UTF-8" standalone="no"?>
<!-- Created with Inkscape (http://www.inkscape.org/) -->

<svg
   xmlns:dc="http://purl.org/dc/elements/1.1/"
   xmlns:cc="http://creativecommons.org/ns#"
   xmlns:rdf="http://www.w3.org/1999/02/22-rdf-syntax-ns#"
   xmlns:svg="http://www.w3.org/2000/svg"
   xmlns="http://www.w3.org/2000/svg"
   xmlns:sodipodi="http://sodipodi.sourceforge.net/DTD/sodipodi-0.dtd"
   xmlns:inkscape="http://www.inkscape.org/namespaces/inkscape"
   width="46.115307"
   height="95.49968"
   viewBox="0 0 12.201341 25.267624"
   version="1.1"
   id="svg8"
   inkscape:version="0.92.2 5c3e80d, 2017-08-06"
   sodipodi:docname="plug.svg"
   inkscape:export-filename="/Users/andral/Dev/web/trefle/web/static/assets/images/logop.png"
   inkscape:export-xdpi="74.599998"
   inkscape:export-ydpi="74.599998">
  <defs
     id="defs2">
    <style
       id="style907"
       type="text/css">
   
    .fil0 {fill:black;fill-rule:nonzero}
   
  </style>
  </defs>
  <sodipodi:namedview
     id="base"
     pagecolor="#ffffff"
     bordercolor="#666666"
     borderopacity="1.0"
     inkscape:pageopacity="0.0"
     inkscape:pageshadow="2"
     inkscape:zoom="9.21"
     inkscape:cx="10.195386"
     inkscape:cy="39.509378"
     inkscape:document-units="mm"
     inkscape:current-layer="layer1"
     showgrid="false"
     inkscape:window-width="1864"
     inkscape:window-height="1155"
     inkscape:window-x="0"
     inkscape:window-y="23"
     inkscape:window-maximized="0"
     fit-margin-top="5"
     fit-margin-left="5"
     fit-margin-right="5"
     fit-margin-bottom="5"
     units="px" />
  <metadata
     id="metadata5">
    <rdf:RDF>
      <cc:Work
         rdf:about="">
        <dc:format>image/svg+xml</dc:format>
        <dc:type
           rdf:resource="http://purl.org/dc/dcmitype/StillImage" />
        <dc:title></dc:title>
      </cc:Work>
    </rdf:RDF>
  </metadata>
  <g
     inkscape:label="Layer 1"
     inkscape:groupmode="layer"
     id="layer1"
     transform="translate(-97.259386,-165.17708)">
    <g
       id="g955"
       transform="matrix(0.26458333,0,0,0.26458333,88.81306,131.87288)">
      <g
         id="g936"
         transform="translate(4.9429658,123.57415)">
        <path
           id="path932"
           d="M 47.6,20.1 C 40.1,21.3 34.4,27.7 34.4,35.5 V 41 c 0,1.4 1.1,2.5 2.5,2.5 h 26.4 c 1.4,0 2.5,-1.1 2.5,-2.5 V 35.6 C 65.8,27.8 60.1,21.3 52.6,20.2 V 9.8 c 0,-1.4 -1.1,-2.5 -2.5,-2.5 -1.4,0 -2.5,1.1 -2.5,2.5 z"
           inkscape:connector-curvature="0" />
        <path
           d="m 397.21484,670.19141 c -1.4,0 -2.5,1.1 -2.5,2.5 v 5.80078 h -2.97461 c -0.005,0.0177 10e-4,0.045 -0.006,0.0605 -0.37906,0.83416 -1.93643,0.74147 -2.22852,-0.0605 h -2.99219 v -5.70117 c 0,-1.4 -1.1,-2.5 -2.5,-2.5 -1.4,0 -2.5,1.1 -2.5,2.5 v 5.80078 h -4.09961 c -1.4,0 -2.5,1.1 -2.5,2.5 v 5.40039 c 0,7.8 5.70117,14.29844 13.20117,15.39843 v 10.4004 c 0,1.4 1.1,2.5 2.5,2.5 1.4,0 2.5,-1.1 2.5,-2.5 v -10.4004 c 7.5,-1.19999 13.19922,-7.59843 13.19922,-15.39843 v -5.5 c 0,-1.4 -1.1,-2.5 -2.5,-2.5 h -4.09961 v -5.80078 c 0,-1.4 -1.1,-2.5 -2.5,-2.5 z m -15.79687,13.22461 c 0.93088,0.11999 1.42623,1.26726 0.59961,2.00781 -0.66343,0.59436 -4.09375,0.57226 -4.09375,0.57226 0,0 1.88635,-2.33253 3.07226,-2.56445 0.14824,-0.029 0.2889,-0.0328 0.42188,-0.0156 z m 18.27148,0.26562 c 0.13299,-0.0171 0.27364,-0.0134 0.42188,0.0156 1.18591,0.23191 3.07226,2.56445 3.07226,2.56445 0,0 -3.43032,0.0221 -4.09375,-0.57227 -0.82662,-0.74055 -0.33126,-1.88782 0.59961,-2.00781 z m -15.58789,6.40039 c 0.74211,0.1183 1.26623,0.93438 0.77344,1.74805 -0.46143,0.76189 -3.75,1.74023 -3.75,1.74023 0,0 1.12456,-2.78019 2.19141,-3.34765 0.26671,-0.14187 0.53778,-0.18006 0.78515,-0.14063 z m 12.9043,0.26563 c 0.24737,-0.0394 0.51844,-10e-4 0.78516,0.14062 1.06685,0.56746 2.1914,3.34766 2.1914,3.34766 0,0 -3.28857,-0.97834 -3.75,-1.74024 -0.49279,-0.81366 0.0313,-1.62974 0.77344,-1.74804 z m -6.42774,1.98828 c 0.4767,-0.0314 0.96554,0.23501 1.15626,0.83984 0.26784,0.8495 -1.16797,3.96484 -1.16797,3.96484 0,0 -1.34614,-2.67944 -1.06836,-3.85546 0.1389,-0.58801 0.60339,-0.91784 1.08007,-0.94922 z"
           transform="translate(-340.61438,-621.99134)"
           id="path934"
           inkscape:connector-curvature="0" />
        <g
           transform="matrix(3.7795276,0,0,3.7795276,-340.56001,-622.04566)"
           id="g1381"
           style="fill:#060606;fill-opacity:1">
          <path
             transform="matrix(0.26444857,0.00844353,-0.00844353,0.26444857,133.12071,162.57407)"
             style="opacity:1;fill:#060606;fill-opacity:1;stroke:none;stroke-width:28.17300034;stroke-linejoin:bevel;stroke-miterlimit:4;stroke-dasharray:none;stroke-opacity:1"
             inkscape:transform-center-x="0.09060061"
             inkscape:transform-center-y="-0.020012765"
             d="m -128.18369,76.752385 1.1315,-0.856524 1.1315,-0.856525 0.17602,1.408171 0.17602,1.408172 -1.30752,-0.551647 z"
             id="path1257"
             inkscape:connector-curvature="0" />
          <path
             transform="matrix(0.25434722,0.07288232,-0.07288232,0.25434722,136.83361,171.35065)"
             style="opacity:1;fill:#060606;fill-opacity:1;stroke:none;stroke-width:28.17300034;stroke-linejoin:bevel;stroke-miterlimit:4;stroke-dasharray:none;stroke-opacity:1"
             inkscape:transform-center-x="0.041304567"
             inkscape:transform-center-y="-0.058955773"
             d="m -125.35671,82.561826 0.56259,-1.137821 0.56259,-1.13782 0.70409,1.056128 0.70408,1.056129 -1.26667,0.08169 z"
             id="path1259"
             inkscape:connector-curvature="0" />
          <path
             transform="matrix(0.23609876,-0.11942243,0.11942243,0.23609876,120.56501,150.92507)"
             style="opacity:1;fill:#060606;fill-opacity:1;stroke:none;stroke-width:28.17300034;stroke-linejoin:bevel;stroke-miterlimit:4;stroke-dasharray:none;stroke-opacity:1"
             inkscape:transform-center-x="-0.01495353"
             inkscape:transform-center-y="-0.095181962"
             d="m -128.18369,76.752385 1.1315,-0.856524 1.1315,-0.856525 0.17602,1.408171 0.17602,1.408172 -1.30752,-0.551647 z"
             id="path1257-6"
             inkscape:connector-curvature="0" />
          <path
             transform="matrix(0.2330076,-0.12534671,0.12534671,0.2330076,119.43255,150.39063)"
             style="opacity:1;fill:#060606;fill-opacity:1;stroke:none;stroke-width:28.17300034;stroke-linejoin:bevel;stroke-miterlimit:4;stroke-dasharray:none;stroke-opacity:1"
             inkscape:transform-center-x="-0.091121256"
             inkscape:transform-center-y="0.0066576606"
             d="m -125.35671,82.561826 0.56259,-1.137821 0.56259,-1.13782 0.70409,1.056128 0.70408,1.056129 -1.26667,0.08169 z"
             id="path1259-7"
             inkscape:connector-curvature="0" />
          <path
             transform="matrix(0.20892535,-0.1623408,0.1623408,0.20892535,114.39707,148.4105)"
             style="opacity:1;fill:#060606;fill-opacity:1;stroke:none;stroke-width:28.17300034;stroke-linejoin:bevel;stroke-miterlimit:4;stroke-dasharray:none;stroke-opacity:1"
             inkscape:transform-center-x="-0.061398441"
             inkscape:transform-center-y="0.038782613"
             d="m -125.35671,82.561826 0.56259,-1.137821 0.56259,-1.13782 0.70409,1.056128 0.70408,1.056129 -1.26667,0.08169 z"
             id="path1259-7-8"
             inkscape:connector-curvature="0" />
          <path
             transform="matrix(0.26231836,0.03454586,-0.03454586,0.26231836,134.84433,164.94135)"
             style="opacity:1;fill:#060606;fill-opacity:1;stroke:none;stroke-width:28.17300034;stroke-linejoin:bevel;stroke-miterlimit:4;stroke-dasharray:none;stroke-opacity:1"
             inkscape:transform-center-x="0.10715362"
             inkscape:transform-center-y="0.0014249882"
             d="m -128.18369,76.752385 1.1315,-0.856524 1.1315,-0.856525 0.17602,1.408171 0.17602,1.408172 -1.30752,-0.551647 z"
             id="path1257-8"
             inkscape:connector-curvature="0" />
          <path
             style="opacity:1;fill:#060606;fill-opacity:1;stroke:none;stroke-width:7.45410633;stroke-linejoin:bevel;stroke-miterlimit:4;stroke-dasharray:none;stroke-opacity:1"
             inkscape:transform-center-x="-0.090596611"
             inkscape:transform-center-y="-0.020012765"
             d="m 108.1023,181.76003 -0.30646,-0.21696 -0.30645,-0.21695 -0.0347,0.37388 -0.0347,0.37387 0.34111,-0.15692 z"
             id="path1257-5"
             inkscape:connector-curvature="0" />
          <path
             transform="matrix(-0.25434722,0.07288232,0.07288232,0.25434722,69.857753,171.3219)"
             style="opacity:1;fill:#060606;fill-opacity:1;stroke:none;stroke-width:28.17300034;stroke-linejoin:bevel;stroke-miterlimit:4;stroke-dasharray:none;stroke-opacity:1"
             inkscape:transform-center-x="-0.041300568"
             inkscape:transform-center-y="-0.058955773"
             d="m -125.35671,82.561826 0.56259,-1.137821 0.56259,-1.13782 0.70409,1.056128 0.70408,1.056129 -1.26667,0.08169 z"
             id="path1259-8"
             inkscape:connector-curvature="0" />
          <path
             transform="matrix(-0.23609876,-0.11942243,-0.11942243,0.23609876,86.126353,150.89631)"
             style="opacity:1;fill:#060606;fill-opacity:1;stroke:none;stroke-width:28.17300034;stroke-linejoin:bevel;stroke-miterlimit:4;stroke-dasharray:none;stroke-opacity:1"
             inkscape:transform-center-x="0.014957529"
             inkscape:transform-center-y="-0.095181962"
             d="m -128.18369,76.752385 1.1315,-0.856524 1.1315,-0.856525 0.17602,1.408171 0.17602,1.408172 -1.30752,-0.551647 z"
             id="path1257-6-3"
             inkscape:connector-curvature="0" />
          <path
             transform="matrix(-0.2330076,-0.12534671,-0.12534671,0.2330076,87.258813,150.36188)"
             style="opacity:1;fill:#060606;fill-opacity:1;stroke:none;stroke-width:28.17300034;stroke-linejoin:bevel;stroke-miterlimit:4;stroke-dasharray:none;stroke-opacity:1"
             inkscape:transform-center-x="0.091125255"
             inkscape:transform-center-y="0.0066576606"
             d="m -125.35671,82.561826 0.56259,-1.137821 0.56259,-1.13782 0.70409,1.056128 0.70408,1.056129 -1.26667,0.08169 z"
             id="path1259-7-3"
             inkscape:connector-curvature="0" />
          <path
             transform="matrix(-0.20892535,-0.1623408,-0.1623408,0.20892535,92.294293,148.38175)"
             style="opacity:1;fill:#060606;fill-opacity:1;stroke:none;stroke-width:28.17300034;stroke-linejoin:bevel;stroke-miterlimit:4;stroke-dasharray:none;stroke-opacity:1"
             inkscape:transform-center-x="0.06140244"
             inkscape:transform-center-y="0.038782613"
             d="m -125.35671,82.561826 0.56259,-1.137821 0.56259,-1.13782 0.70409,1.056128 0.70408,1.056129 -1.26667,0.08169 z"
             id="path1259-7-8-3"
             inkscape:connector-curvature="0" />
          <path
             transform="matrix(-0.26231836,0.03454586,0.03454586,0.26231836,71.847013,164.91258)"
             style="opacity:1;fill:#060606;fill-opacity:1;stroke:none;stroke-width:28.17300034;stroke-linejoin:bevel;stroke-miterlimit:4;stroke-dasharray:none;stroke-opacity:1"
             inkscape:transform-center-x="-0.10714963"
             inkscape:transform-center-y="0.0014249882"
             d="m -128.18369,76.752385 1.1315,-0.856524 1.1315,-0.856525 0.17602,1.408171 0.17602,1.408172 -1.30752,-0.551647 z"
             id="path1257-8-8"
             inkscape:connector-curvature="0" />
        </g>
        <g
           id="g5272" />
      </g>
    </g>
  </g>
</svg>
