<?xml version="1.0" encoding="UTF-8" standalone="no"?>
<svg
   xmlns:dc="http://purl.org/dc/elements/1.1/"
   xmlns:cc="http://creativecommons.org/ns#"
   xmlns:rdf="http://www.w3.org/1999/02/22-rdf-syntax-ns#"
   xmlns:svg="http://www.w3.org/2000/svg"
   xmlns="http://www.w3.org/2000/svg"
   xmlns:sodipodi="http://sodipodi.sourceforge.net/DTD/sodipodi-0.dtd"
   xmlns:inkscape="http://www.inkscape.org/namespaces/inkscape"
   viewBox="0 0 774.62891 774.62891"
   version="1.1"
   x="0px"
   y="0px"
   id="svg4588"
   sodipodi:docname="logo-diff.svg"
   inkscape:version="0.92.2 5c3e80d, 2017-08-06"
   inkscape:export-filename="/Users/andral/Dev/web/trefle/doc/source/images/logo.png"
   inkscape:export-xdpi="74.599998"
   inkscape:export-ydpi="74.599998"
   width="774.62891"
   height="774.62891">
  <metadata
     id="metadata4594">
    <rdf:RDF>
      <cc:Work
         rdf:about="">
        <dc:format>image/svg+xml</dc:format>
        <dc:type
           rdf:resource="http://purl.org/dc/dcmitype/StillImage" />
        <dc:title></dc:title>
      </cc:Work>
    </rdf:RDF>
  </metadata>
  <defs
     id="defs4592" />
  <sodipodi:namedview
     pagecolor="#ffffff"
     bordercolor="#666666"
     borderopacity="1"
     objecttolerance="10"
     gridtolerance="10"
     guidetolerance="10"
     inkscape:pageopacity="0"
     inkscape:pageshadow="2"
     inkscape:window-width="1737"
     inkscape:window-height="1006"
     id="namedview4590"
     showgrid="false"
     inkscape:zoom="1"
     inkscape:cx="480.78935"
     inkscape:cy="337.74409"
     inkscape:window-x="0"
     inkscape:window-y="23"
     inkscape:window-maximized="0"
     inkscape:current-layer="g4582"
     fit-margin-top="50"
     fit-margin-left="50"
     fit-margin-bottom="50"
     fit-margin-right="50" />
  <g
     id="g4582"
     transform="translate(-101.76324,-123.35799)"
     style="fill:#000000;fill-opacity:1">
    <g
       id="g4687">
      <path
         style="opacity:1;fill:#4bb935;fill-opacity:0.94594589;stroke:none;stroke-width:28.17300034;stroke-linejoin:bevel;stroke-miterlimit:4;stroke-dasharray:none;stroke-opacity:1"
         d="M 500,287.68555 A 337.31427,337.31427 0 0 0 162.68555,625 337.31427,337.31427 0 0 0 290.44336,888.88281 c -3.736,-16.56692 -7.47334,-33.13288 -11.23047,-49.69531 -14.91,-10.79 -24.87086,-27.81984 -28.13086,-45.83984 -3.33,-17.54 0.11969,-36.27 9.42969,-51.5 1.22,-2.01 3.08109,-3.49094 4.87109,-4.96094 -0.24,-4.39 -0.49039,-8.77992 -0.65039,-13.16992 -5.23,0.31 -10.9907,-0.40046 -14.7207,-4.48047 -6.24,-5.96 -5.52938,-17.1586 1.39062,-22.3086 4.07,-3.49 9.64946,-3.36093 14.68946,-3.21093 1.23,-10.33 2.80968,-20.61047 5.17968,-30.73047 -5.67,-1.6 -12.33875,-2.65938 -15.71875,-8.10938 -5.21,-7.18 -2.13125,-18.37922 5.96875,-21.94922 5.97,-3.17 12.57,-0.27132 18.5,1.38868 3.22,-8.14 6.22032,-16.38868 10.32032,-24.13868 -5.09,-3.09 -11.45867,-5.63156 -13.38868,-11.85156 -3.36999,-8.46 2.7593,-18.80992 11.7793,-19.91992 6.28,-1.26 11.57016,2.89008 16.66016,5.83008 4.94,-7.45999 10.17976,-14.71977 16.00976,-21.50977 -3.73,-3.84 -7.74007,-7.39937 -11.33007,-11.35937 -5.4,-6.19 -4.08016,-16.65063 2.58984,-21.39063 5.43,-4.26 13.83016,-3.98906 18.91016,0.71094 3.64,3.33 6.99054,6.94961 10.56054,10.34961 6.14,-5.82 12.59914,-11.26953 19.61914,-16.01953 -3.88,-5.04001 -8.36023,-10.91141 -6.99023,-17.69141 1.23,-8.91 11.45008,-14.86983 19.83008,-11.58984 6.03,1.93001 8.85953,8.00984 11.76953,13.08984 10.42,-5.62 21.20023,-10.53859 32.24023,-14.80859 -10.34,-22.17001 -10.31937,-49.17992 1.14063,-70.91992 2.02,-3.27 5.48054,-5.23 7.81054,-8.25 4.15,-5.04 11.15985,-4.97071 17.08985,-5.72071 3.93,-25.32 21.78953,-47.78938 45.26953,-57.85937 3.46,-1.30001 7.28953,-0.87063 10.76953,-2.14063 1.1025,-0.33 2.22461,-0.49066 3.3457,-0.50586 3.36328,-0.0455 6.71461,1.21898 9.47461,3.14649 18.76,11.91 31.64961,32.2489 35.09961,54.1289 4.51,-0.06 9.42985,-0.32015 13.33985,2.33985 3.24,1.91001 5.19007,5.24086 6.58007,8.63086 6.73,3.53 9.47993,11.0089 12.16993,17.6289 8.19,19.58 7.38125,42.40078 -0.96875,61.80079 6.49,2.47 12.73898,5.56015 18.95898,8.66015 2.59,-5.28 6.01094,-11.10953 12.21094,-12.51953 8.49,-2.66 18.13008,3.96884 18.83008,12.79883 0.83,5.60001 -2.41993,10.54976 -5.66993,14.75976 8.08,5.62 15.95883,11.5318 23.29883,18.0918 5.17,-4.7 9.80047,-11.59109 17.48047,-11.87109 9.15,-0.86 17.3707,8.14968 15.7207,17.17968 -0.96,7.2 -7.59039,11.31118 -12.40039,15.95118 7.21,8.34 14,17.04859 20,26.30859 5.95,-2.78 11.71951,-7.9093 18.76954,-6.2793 8.92998,1.4 14.78062,11.91047 11.14062,20.23047 -2.36,6.64 -9.50936,8.99039 -15.10938,12.15039 4.69003,9.57 8.66868,19.4786 12.13868,29.5586 6.47,-1.21 13.50109,-4.48985 19.87109,-1.08985 8.26,3.76 11.02906,15.45978 5.28906,22.50977 -3.94,5.64 -11.29914,5.98008 -17.36914,7.58008 1.79,9.23 3.05899,18.55015 3.95899,27.91015 7.71,-0.29 17.07031,-1.99867 23.07031,4.11133 6.35,5.99 5.63008,17.32875 -1.41992,22.46875 -5.93,4.73 -13.95039,2.81125 -20.90039,2.78125 -0.12,2.17 -0.22961,4.36859 -0.34961,6.55859 6.72,2.12 10.53094,8.31063 13.71093,14.14063 17.46002,27.99 11.91876,67.52953 -11.78124,90.26953 -1.68002,1.72 -3.95055,3.24031 -4.31055,5.82031 -3.07486,13.2077 -6.15583,26.41701 -9.23438,39.625 A 337.31427,337.31427 0 0 0 837.31445,625 337.31427,337.31427 0 0 0 500,287.68555 Z m 0.5918,91.54101 c -5.97,2.98 -11.10024,7.35985 -15.74024,12.08985 -5.49,6.15 -8.65929,13.97961 -10.77929,21.84961 9.07,3.4 17.52078,8.36 24.80078,14.75 2.85,-2.35 5.32906,-5.18836 8.53906,-7.06836 4.1,-2.25 7.52969,-5.59079 11.92969,-7.30078 -1.27,-13.38001 -8.23,-25.99032 -18.75,-34.32032 z m 47.62109,56.75 c -9.56,0.63 -18.0407,5.46969 -25.4707,11.17969 -9.33,8.6 -15.60969,20.54094 -16.92969,33.21094 15.21,0.9 30.36992,2.93984 45.16992,6.58984 3.5,-7.36 5.68945,-15.46039 5.43946,-23.65039 0.1,-9.71 -3.47899,-19.00008 -8.20899,-27.33008 z m -97.92383,2.97656 c -1.68984,-0.0418 -3.38492,0.0173 -5.07617,0.1836 -5.19,11.27 -5.03031,24.31937 -1.82031,36.10937 1.15,3.6 2.94875,6.9611 3.96875,10.6211 9.31,-2.45 18.84015,-3.81969 28.41015,-4.67969 0.19,-9.7 3.23055,-18.91031 6.06055,-28.07031 -8.14625,-8.60125 -19.71406,-13.87176 -31.54297,-14.16407 z m 46.9043,71.29297 c -11.55184,-0.0696 -23.10804,0.88531 -34.49024,2.89063 -17.93,3.68 -35.74179,8.59023 -52.09179,16.99023 -13.66,6.23 -25.82891,15.14071 -37.87891,23.97071 -22.42,18.25 -41.04023,41.11961 -54.24023,66.84961 -17.51,34.13 -25.55961,72.96 -23.34961,111.25 134.1,0.03 268.18928,-4.7e-4 402.2793,0.0195 2.5,-43.33 -8.14008,-87.44977 -30.83008,-124.50977 -20.06,-32.87 -49.19946,-60.41 -83.93946,-77.25 -26.45,-13.16031 -55.93762,-20.03315 -85.45898,-20.21094 z m -13.00977,7.44336 c 7.23719,-0.13152 14.42414,5.38078 15.22852,12.84766 0.33,6.22 0.12109,12.46117 0.12109,18.70117 -0.11,7.64 -6.96007,14.2886 -14.58008,14.3086 -7.83999,0.38999 -15.20078,-6.35024 -15.30078,-14.24024 -0.11,-5.66 -0.09,-11.31851 0,-16.97852 0.02,-5.95 4.03985,-11.5496 9.58985,-13.5996 1.5975,-0.67688 3.27128,-1.00872 4.9414,-1.03907 z m 61.39844,13.70117 c 3.31547,-0.1167 6.66008,0.84516 9.33008,2.84766 5.89,4.41 11.36953,9.34008 16.76953,14.33008 4.52,3.99 6.10992,10.78844 3.91992,16.39844 -2.37,6.59 -9.78969,10.80992 -16.67968,9.41992 -6.30001,-0.99 -10.07938,-6.65977 -14.85938,-10.25977 -4.43,-4.17 -10.65031,-7.25031 -12.32031,-13.57031 -2.48,-7.78 2.64054,-16.78945 10.56054,-18.68945 1.0725,-0.28 2.17415,-0.43766 3.2793,-0.47657 z m -126.07617,9.74219 c 7.62172,-0.10174 15.01695,6.18649 15.23633,14.08399 0.71,6.3 -3.89985,11.14172 -7.08985,16.01172 -3.2,4.66 -5.92054,10.50851 -11.81054,12.22851 -8.51,3.28 -18.77875,-3.10867 -19.71875,-12.13867 -1.19,-6.79 3.63961,-12.28125 7.09961,-17.53125 3.25,-4.62 6.17031,-10.32016 12.07031,-11.91016 1.38281,-0.4875 2.80146,-0.7253 4.21289,-0.74414 z m 66.05078,37.69141 c 5.36203,-0.12656 10.79031,2.66359 13.44531,7.43359 2.82,4.5 1.89102,10.03033 2.04102,15.07031 -0.15,6.06002 1.0793,12.98977 -3.2207,18.00977 -5.44,7.36 -17.6393,7.52055 -23.2793,0.31055 -5.52,-6.53 -2.82047,-15.60133 -3.48047,-23.36133 -0.75,-6.71 2.80977,-13.83008 9.25977,-16.33008 1.6675,-0.725 3.44703,-1.09062 5.23437,-1.13281 z m 105.375,0.18555 c 4.71328,-0.0399 9.45391,2.13937 12.19141,6.04687 4.6,6.53 8.66883,13.42172 12.79883,20.26172 3.12998,4.67 3.82023,10.99828 0.99023,15.98828 -3.57,7.05 -13.17008,10.02164 -20.08008,6.18164 -5.28,-2.45 -7.25883,-8.27125 -10.29883,-12.78125 -2.72,-4.83 -6.04054,-9.29008 -8.81054,-14.08008 -4.17,-7.7 0.25007,-18.24031 8.58007,-20.82031 1.49,-0.525 3.05782,-0.78359 4.62891,-0.79687 z m -202.24805,21.7832 c 6.53996,-0.0695 13.01086,4.40101 14.70899,10.88476 1.89,6.03 -1.49086,11.77977 -2.88086,17.50977 -1.83,5.65 -2.32977,12.45 -7.50977,16.25 -6.88,5.83 -18.50976,3.39008 -22.50976,-4.66992 -4.32,-7.92 0.69054,-16.54969 2.56054,-24.42969 1.41,-6.18 4.5604,-12.82023 11.15039,-14.74023 1.45876,-0.53063 2.97125,-0.78864 4.48047,-0.80469 z m 233.86719,46.10937 c 6.28294,-0.23975 12.67156,3.68329 14.71094,9.78516 2.09,6.82 3.60055,13.81102 5.06055,20.79102 1.15,5.43 -1.05071,11.37828 -5.47071,14.73828 -5.85,4.77 -15.23828,4.01132 -20.23828,-1.63868 -3.94,-4.03998 -4.07039,-9.97085 -5.40039,-15.13085 -0.83,-4.38 -2.65141,-8.56907 -2.94141,-13.03907 -0.37,-6.39 3.96,-12.61039 10,-14.65039 1.38375,-0.52312 2.82939,-0.80014 4.2793,-0.85547 z M 483.77539,660.9668 c 8.14445,-0.25296 16.07844,6.81414 15.54688,15.36132 -0.46,6.90001 1.57031,14.7093 -2.67969,20.7793 -4.05,6.13 -12.90031,8.28922 -19.32031,4.69922 -5.27,-2.67 -8.40071,-8.61875 -7.97071,-14.46875 0.26,-5.28 -0.64906,-10.72039 0.71094,-15.90039 1.37,-4.39 4.8907,-8.00906 9.2207,-9.53906 1.47032,-0.58594 2.98396,-0.8848 4.49219,-0.93164 z m -107.26758,2.45117 c 7.33168,-0.17473 14.4886,5.57156 15.21485,13.07031 0.23,6.3 -0.0209,12.61016 -0.21094,18.91016 -0.23,7.53 -7.09008,13.98898 -14.58008,13.95898 -7.4,0.35 -14.45844,-5.66078 -15.14844,-13.05078 -0.37,-6.35 -0.17078,-12.71859 0.19922,-19.05859 0.31,-6.33 5.25063,-11.97086 11.39063,-13.38086 1.03625,-0.27875 2.08738,-0.42426 3.13476,-0.44922 z m -92.91601,98.72851 c -3.98,9.17 -5.02055,19.70032 -2.06055,29.32032 2.61,8.91 7.41023,17.67929 14.99023,23.27929 4.89,2.14 9.52055,5.83133 10.56055,11.36133 6.57737,29.3024 13.16872,58.59984 19.75781,87.89844 A 337.31427,337.31427 0 0 0 500,962.31445 337.31427,337.31427 0 0 0 678.55664,910.95898 c 5.68315,-24.38194 11.36843,-48.76286 17.05469,-73.14257 1.05,-4.02 1.42148,-8.37016 3.77148,-11.91016 1.67,-2.67 4.1693,-4.60914 6.5293,-6.61914 11.8,-10.09 17.72047,-26.88008 14.23047,-42.08008 -1.27,-5.2 -2.62117,-10.80969 -6.20117,-14.92969 -31.34,-0.27 -62.69883,-0.0313 -94.04883,-0.11132 -112.1,-0.01 -224.20078,0.0205 -336.30078,-0.0195 z"
         transform="translate(-10.922307,-114.32756)"
         id="path4596"
         inkscape:export-filename="/Users/andral/Dev/web/trefle/doc/source/images/path4596.png"
         inkscape:export-xdpi="74.599998"
         inkscape:export-ydpi="74.599998"
         inkscape:connector-curvature="0" />
    </g>
  </g>
</svg>
