<?xml version="1.0" encoding="utf-8"?>
<!-- Generator: Adobe Illustrator 19.0.0, SVG Export Plug-In . SVG Version: 6.00 Build 0)  -->
<svg version="1.1" id="Layer_1" xmlns="http://www.w3.org/2000/svg" xmlns:xlink="http://www.w3.org/1999/xlink" x="0px" y="0px"
	 viewBox="0 0 590 230" style="enable-background:new 0 0 590 230;" xml:space="preserve">
<style type="text/css">
	.st0{fill:#313234;}
</style>
<path class="st0" d="M207.4,5.2c-0.3,0-2.4,0-2.6,0.2c-0.3,0.3-0.3,0.5-0.3,0.9v10.8h1.1c2,0,5.5-0.3,6.7-2.4
	c0.5-0.9,0.7-2.2,0.7-3.3C212.9,7.8,211.2,5.2,207.4,5.2 M219,29.9c-1,0-2,0-3,0.1c-1.1-1.3-2.1-2.7-3.2-4c-1.5-1.9-3-3.8-4.6-5.7
	c-0.3-0.4-0.7-0.7-1-1.1c-1.1-1.2-1.1-1.2-2.7-1.2v5.1c0,1.2-0.2,4.7,1,5.6c0.5,0.3,1.3,0.4,1.9,0.4c0.3,0,0.5,0,0.8,0V30
	c-1.9-0.1-3.8-0.2-5.7-0.2c-1.9,0-3.9,0.1-5.8,0.2v-0.9c0.3,0,0.5,0,0.8,0c0.6,0,1.4-0.1,1.9-0.4c1.2-0.8,1-4.3,1-5.6v-12
	c0-1.3,0.3-4.9-1.2-5.6c-0.5-0.3-1.2-0.3-1.8-0.3l-0.8-0.1V4.2c1.9,0,3.8,0.1,5.7,0.1c2,0,4.1-0.2,6.2-0.2c2.1,0,4.3,0,6.1,1.2
	c1.8,1.2,2.7,3.2,2.7,5.3c0,2.5-1.3,4.7-3.6,5.8c-1.2,0.6-2.2,0.7-3.5,0.9l8.6,9.8c1.2,1.3,1.9,1.6,3.6,1.9V30
	C221.3,29.9,220.2,29.9,219,29.9"/>
<path class="st0" d="M231.4,13.6c-4.3,0-5.4,4.2-5.4,7.8c0,3.7,1,8.1,5.6,8.1c4.3,0,5.4-4.2,5.4-7.8
	C236.9,18.1,235.8,13.6,231.4,13.6 M231.5,30.4c-5,0-9.4-3.8-9.4-9c0-5.1,4.4-8.8,9.3-8.8c4.9,0,9.5,3.7,9.5,8.8
	C240.9,26.8,236.5,30.4,231.5,30.4"/>
<path class="st0" d="M256.1,15.7c-0.8,1.6-1.4,3.2-2.1,4.8l-5.1,12c-0.3,0.8-0.7,1.6-1.1,2.4l-1.1,2.5c-0.5,1-1.4,3.3-2.8,3.3
	c-0.7,0-1.2-0.4-1.2-1.1c0-1.3,1.1-1.7,2.1-2.2c1.2-0.6,2-2.8,2.5-3.9l1.7-3.8l-5.7-13.4c-0.7-1.7-0.9-2.1-2.7-2.4v-0.9
	c1.4,0,2.7,0.1,4.1,0.1c1.4,0,2.9,0,4.3-0.1V14c-0.9,0.2-2.4-0.1-2.4,1.2c0,1,1,3.3,1.4,4.2l2.7,6.4l3.1-7.5
	c0.3-0.8,0.9-2.3,0.9-3.2c0-1.1-1.4-1.1-2.1-1.2v-0.9c1,0,1.9,0.1,2.9,0.1c0.9,0,1.8,0,2.7-0.1V14C256.7,14.1,256.6,14.5,256.1,15.7
	"/>
<path class="st0" d="M269.3,20.3c-1.1,0.5-2.2,1-3.2,1.5c-1.7,0.9-3.6,2.1-3.6,4.3c0,1.5,1,2.8,2.5,2.8c1.6,0,3.2-1.2,4.3-2.2V20.3z
	 M272.8,30.2c-1.6,0-2.9-1-3.3-2.5c-1.9,1.5-4.1,2.8-6.5,2.8c-2,0-4-1.2-4-3.4c0-3.2,3.1-4.6,5.6-5.7l2.9-1.3c0.3-0.2,1.4-0.6,1.6-1
	c0.1-0.2,0.1-0.7,0.1-0.9c0-2.9-0.3-4.6-3.5-4.6c-1.8,0-3.4,0.2-3.6,2.2c-0.1,1-0.5,1.7-1.6,1.7c-0.8,0-1.4-0.6-1.4-1.4
	c0-3,5.1-3.5,7.2-3.5c3.8,0,6.3,0.9,6.3,5.2v7.4c0,1,0,3.1,1.4,3.1c0.8,0,1.2-0.4,1.6-1l0.7,0.4C275.6,29.2,274.4,30.2,272.8,30.2"
	/>
<path class="st0" d="M281.5,29.9c-1.5,0-2.9,0.1-4.4,0.2v-0.9c2.4-0.2,2.7-0.4,2.7-2.8c0-0.6,0-1.2,0-1.8V9.6c0-1.1,0.2-3.4-1-4
	c-0.5-0.3-1.4-0.3-2-0.4V4.4c2.2-0.3,4.2-0.7,6.3-1.2v21.3c0,0.6,0,1.2,0,1.8c0,2.5,0.3,2.5,2.7,2.8V30
	C284.5,29.9,283,29.9,281.5,29.9"/>
<path class="st0" d="M306.2,5.1c-0.6,0-2.2-0.2-2.4,0.5c-0.1,0.3-0.1,0.7-0.1,1V16h2.5c3.4,0,5.4-1.9,5.4-5.3
	C311.6,7.1,309.8,5.1,306.2,5.1 M306.1,16.9h-2.4v5.9c0,1.6-0.2,4.8,1.5,5.7c0.7,0.4,1.6,0.4,2.4,0.4h0.2c0.2,0,0.3,0,0.5,0
	c1.1-0.1,2.3-0.2,3.3-0.8c1.7-0.9,2.2-3.2,2.2-5C313.8,18.1,310.5,16.9,306.1,16.9 M316.3,28.1c-2.4,1.8-5.2,1.7-8.1,1.8
	c-1.6,0-3.2,0-4.8,0c-0.6,0-1.2,0-1.7,0c-1.9,0-3.9,0.1-5.7,0.2v-0.9c0.3,0,0.5,0,0.8,0c0.6,0,1.4-0.1,1.9-0.4c1.3-0.8,1-4.3,1-5.6
	v-12c0-1.3,0.2-4.8-1-5.6c-0.5-0.3-1.3-0.4-1.9-0.4c-0.3,0-0.5,0-0.8,0V4.2c2.3,0.1,4.6,0.1,6.9,0.1c1.5,0,3-0.1,4.6-0.1
	c3.9,0,8.5,1.4,8.5,6.1c0,2.1-1.1,3.9-3,4.9c-0.9,0.5-1.9,0.7-2.9,1c2.3,0.5,4.7,0.8,6.5,2.5c1.3,1.2,2.1,2.9,2.1,4.7
	C318.6,25.2,317.8,26.9,316.3,28.1"/>
<path class="st0" d="M330.3,13.6c-4.3,0-5.4,4.2-5.4,7.8c0,3.7,1,8.1,5.6,8.1c4.3,0,5.4-4.2,5.4-7.8
	C335.8,18.1,334.8,13.6,330.3,13.6 M330.4,30.4c-5,0-9.4-3.8-9.4-9c0-5.1,4.4-8.8,9.3-8.8c4.9,0,9.5,3.7,9.5,8.8
	C339.8,26.8,335.5,30.4,330.4,30.4"/>
<path class="st0" d="M347.9,30.4c-3.2,0-4.7-1.4-4.7-4.6V14.2h-2v-0.5c0,0,0.1,0,0.2-0.1c2-1.2,3.7-2.7,4.6-4.9h0.6v4.5h4.4v1h-4.4
	v10.2c0,0.8,0,1.6,0.1,2.4c0.2,1.6,0.6,2.5,2.3,2.5c1.4,0,2-0.8,2.9-1.9l0.7,0.6C351.6,29.9,349.8,30.4,347.9,30.4"/>
<path class="st0" d="M364.3,20.3c-1.1,0.5-2.2,1-3.2,1.5c-1.7,0.9-3.6,2.1-3.6,4.3c0,1.5,1,2.8,2.5,2.8c1.6,0,3.2-1.2,4.3-2.2V20.3z
	 M367.8,30.2c-1.6,0-2.9-1-3.3-2.5c-1.9,1.5-4.1,2.8-6.5,2.8c-2,0-4-1.2-4-3.4c0-3.2,3.1-4.6,5.6-5.7l2.9-1.3c0.3-0.2,1.4-0.6,1.6-1
	c0.1-0.2,0.1-0.7,0.1-0.9c0-2.9-0.3-4.6-3.5-4.6c-1.8,0-3.4,0.2-3.6,2.2c-0.1,1-0.5,1.7-1.6,1.7c-0.8,0-1.4-0.6-1.4-1.4
	c0-3,5.1-3.5,7.2-3.5c3.8,0,6.3,0.9,6.3,5.2v7.4c0,1,0,3.1,1.4,3.1c0.8,0,1.2-0.4,1.6-1l0.7,0.4C370.6,29.2,369.4,30.2,367.8,30.2"
	/>
<path class="st0" d="M388.7,29.9c-1.5,0-3,0.1-4.5,0.2v-0.9c2.4-0.2,2.7-0.4,2.7-2.8c0-0.6,0-1.2,0-1.8V20c0-2.7-0.1-6-3.5-6
	c-1.5,0-3.2,0.8-4.1,2c-1,1.5-1,3.3-1,5v3.4c0,0.6,0,1.2,0,1.8c0,2.4,0.3,2.6,2.7,2.8V30c-1.5-0.1-2.9-0.2-4.4-0.2
	c-1.5,0-2.9,0.1-4.4,0.2v-0.9c2.4-0.3,2.6-0.4,2.7-2.8c0-0.6,0-1.2,0-1.8v-4.8c0-0.9,0.1-4-0.7-4.7c-0.4-0.3-0.9-0.3-1.4-0.3l-0.7,0
	v-0.8c1.9-0.2,3.5-0.8,5.4-1.4c0.3,1.3,0.5,2.5,0.5,3.8c1.4-2.4,3.4-3.6,6.2-3.6c2.4,0,5.1,0.8,5.7,3.4c0.2,0.9,0.3,1.9,0.3,2.8v5.7
	c0,0.6,0,1.2,0,1.8c0,0.7-0.1,2,0.7,2.4c0.6,0.3,1.3,0.3,2,0.4V30C391.6,29.9,390.1,29.9,388.7,29.9"/>
<path class="st0" d="M398.5,7.4c-1.2,0-2.1-0.9-2.1-2.1s0.9-2.1,2.1-2.1s2.1,1,2.1,2.1C400.6,6.5,399.6,7.4,398.5,7.4 M399,29.9
	c-1.5,0-3,0.1-4.4,0.2v-0.9c2.4-0.2,2.7-0.4,2.7-2.8c0-0.6,0-1.2,0-1.8v-5.4c0-0.6,0.1-3.2-0.3-3.7c-0.3-0.5-0.8-0.6-1.4-0.6
	c-0.4,0-0.9,0-1.3,0.1V14c2.2-0.4,4.1-0.8,6.3-1.5v12c0,0.6,0,1.2,0,1.8c0,2.5,0.3,2.6,2.7,2.8V30C401.9,29.9,400.4,29.9,399,29.9"
	/>
<path class="st0" d="M412.5,30.4c-4.9,0-8.4-3.4-8.4-8.3c0-5.5,4.1-9.5,9.5-9.5c1.6,0,5.1,0.5,5.1,2.7c0,0.7-0.6,1.4-1.3,1.4
	c-0.9,0-1.3-0.8-1.7-1.5c-0.6-1.3-0.7-1.5-2.2-1.5c-4.2,0-5.5,4.2-5.5,7.8c0,3.7,1.1,7.7,5.6,7.7c2.1,0,3.6-1,5-2.5l0.8,0.7
	C417.6,29.5,415.2,30.4,412.5,30.4"/>
<path class="st0" d="M453.4,23.2c0,1.4,0.1,2.8,0.2,4.2c-2.7,0-3.2,0.5-5.5,1.7c-2.1,1-3.9,1.5-6.2,1.5c-3.6,0-6.7-1-9.3-3.5
	c-2.7-2.6-3.7-5.6-3.7-9.3c0-8.1,5.5-14.2,13.8-14.2c3,0,5.6,0.7,8.1,2.4l0.8-1.8h0.4l-0.4,7.8h-0.8c-0.2-4.5-3.2-7.5-7.8-7.5
	c-7.4,0-9.2,7-9.2,13.2c0,5.7,2.1,11.8,8.8,11.8c3.9,0,6.7-1.7,6.7-5.9c0-2.5-0.8-3.3-3.4-3.4v-0.9c1.7,0,3.5,0.1,5.2,0.1
	c1.7,0,3.3,0,4.9-0.1v0.9C453.9,20.3,453.4,21.2,453.4,23.2"/>
<path class="st0" d="M467.9,20.3c-1.1,0.5-2.2,1-3.2,1.5c-1.7,0.9-3.6,2.1-3.6,4.3c0,1.5,1,2.8,2.5,2.8c1.6,0,3.2-1.2,4.3-2.2V20.3z
	 M471.4,30.2c-1.6,0-2.9-1-3.3-2.5c-1.9,1.5-4.1,2.8-6.5,2.8c-2,0-4-1.2-4-3.4c0-3.2,3.1-4.6,5.6-5.7l2.9-1.3c0.3-0.2,1.4-0.6,1.6-1
	c0.1-0.2,0.1-0.7,0.1-0.9c0-2.9-0.3-4.6-3.5-4.6c-1.8,0-3.4,0.2-3.6,2.2c-0.1,1-0.5,1.7-1.6,1.7c-0.8,0-1.4-0.6-1.4-1.4
	c0-3,5.1-3.5,7.2-3.5c3.8,0,6.3,0.9,6.3,5.2v7.4c0,1,0,3.1,1.4,3.1c0.8,0,1.2-0.4,1.6-1l0.7,0.4C474.2,29.2,473,30.2,471.4,30.2"/>
<path class="st0" d="M488.7,16.1c-1.6,0-1.3-2-2.8-2c-1.2,0-2.5,1-3.1,2c-0.9,1.5-0.9,3.2-0.9,4.9v3.6c0,0.6,0,1.2,0,1.8
	c0.1,2.6,0.5,2.6,3,2.8V30c-1.5-0.1-3-0.2-4.5-0.2s-3,0.1-4.5,0.2v-0.9c2.4-0.3,2.6-0.4,2.7-2.8c0-0.6,0-1.2,0-1.8v-4.7
	c0-1,0.2-4.1-0.7-4.7c-0.4-0.3-0.9-0.3-1.3-0.3l-0.7,0v-0.8c1.9-0.2,3.5-0.8,5.2-1.4c0.3,1.4,0.5,2.7,0.5,4.2c1.2-2.4,2.9-4,5.6-4
	c1.2,0,2.9,0.5,2.9,2C490.1,15.5,489.5,16.1,488.7,16.1"/>
<path class="st0" d="M504.6,19.7c0-2.2,0-3.6-1.9-4.9c-0.8-0.5-1.8-0.8-2.8-0.8c-4.2,0-5.5,4.2-5.5,7.8c0,3.6,1.2,7.6,5.4,7.6
	c1.6,0,3.3-0.8,4.1-2.2c0.6-1.1,0.8-3.4,0.8-4.7C504.7,21.5,504.6,20.6,504.6,19.7 M505.8,30.5c-0.4-1-0.7-2-0.8-3
	c-1.7,2.1-3.3,3-6.1,3c-5,0-8.5-3.8-8.5-8.7c0-4.9,3.5-9,8.5-9c2.2,0,4,0.8,5.6,2.4V8.5c0-2.5-0.5-3-3-3.2V4.4
	c2.1-0.3,4.2-0.7,6.3-1.2v20.3c0,1.2-0.1,3.9,1.1,4.6c0.5,0.3,1,0.3,1.6,0.3h0.5v0.8C509.3,29.6,507.6,30,505.8,30.5"/>
<path class="st0" d="M520.5,13.6c-3.1,0-4,2.1-4.6,4.8h6.9c0.7,0,1.5,0.1,1.5-0.8C524.3,15.2,523,13.6,520.5,13.6 M527.4,19.5h-11.7
	c-0.2,0.6-0.2,1.2-0.2,1.8c0,3.7,2,7.7,6.2,7.7c2.1,0,3.7-1,4.9-2.7l0.8,0.8c-1.9,2.3-3.9,3.3-6.9,3.3c-5,0-8.9-3.4-8.9-8.5
	c0-4.9,3.9-9.2,8.9-9.2c3.8,0,7.4,2.3,7.4,6.4C527.9,19.5,527.8,19.5,527.4,19.5"/>
<path class="st0" d="M545.5,29.9c-1.5,0-3,0.1-4.5,0.2v-0.9c2.4-0.2,2.7-0.4,2.7-2.8c0-0.6,0-1.2,0-1.8V20c0-2.7-0.1-6-3.6-6
	c-1.5,0-3.2,0.8-4.1,2c-1,1.5-1,3.3-1,5v3.4c0,0.6,0,1.2,0,1.8c0,2.4,0.3,2.6,2.7,2.8V30c-1.5-0.1-2.9-0.2-4.4-0.2
	c-1.5,0-2.9,0.1-4.4,0.2v-0.9c2.4-0.3,2.6-0.4,2.7-2.8c0-0.6,0-1.2,0-1.8v-4.8c0-0.9,0.1-4-0.7-4.7c-0.4-0.3-0.9-0.3-1.4-0.3l-0.7,0
	v-0.8c1.9-0.2,3.5-0.8,5.4-1.4c0.3,1.3,0.5,2.5,0.5,3.8c1.4-2.4,3.4-3.6,6.2-3.6c2.4,0,5.1,0.8,5.7,3.4c0.2,0.9,0.3,1.9,0.3,2.8v5.7
	c0,0.6,0,1.2,0,1.8c0,0.7-0.1,2,0.7,2.4c0.6,0.3,1.3,0.3,2,0.4V30C548.4,29.9,546.9,29.9,545.5,29.9"/>
<path class="st0" d="M557.4,30.4c-1.6,0-3-0.5-4.4-1.4l-0.8,1.2h-0.6l-0.1-5.6h0.7c0.7,2.6,1.9,5,4.9,5c1.8,0,3.2-0.9,3.2-2.8
	c0-4.1-8.7-3.7-8.7-9.4c0-2.6,2.2-4.7,4.8-4.7c1.4,0,2.7,0.3,3.9,1l0.8-0.9h0.5l-0.1,4.9h-0.7c-0.8-2.1-1.5-4-4.1-4
	c-1.3,0-2.5,0.7-2.5,2.1c0,1.7,1.2,2.3,2.5,3c2.9,1.5,6.3,2.6,6.3,6.4C563.2,28.4,560.5,30.4,557.4,30.4"/>
<path class="st0" d="M294,116.8l-86.1,0.1l0.2-2.9c2.7-26.7,18.1-51.1,42.6-51.6C278.6,61.8,293.8,83.5,294,116.8 M320,122.4
	c0-18-9.2-35.4-18.5-44.7c-12.5-12.6-30-19.3-49.8-19.3c-44.9,0-76.1,38.1-76.1,84.9c0,50.5,36.2,85.1,84,85.1
	c22.1,0,36.9-7.8,44.8-14.1c7.5-5.9,12-12,15.1-17.5c5.1-9.2,5.7-13.7,5.7-13.7l-3.8-1.7c0,0-1.4,3.4-5.4,10.3
	c-4.1,7.1-12.6,12.9-17.3,15.6c-4,2.4-14.6,6.5-30.6,6.5c-19.3,0-60.5-14.4-60.5-88.6l0-2.3l112.4,0.1
	C320,122.9,320,122.6,320,122.4"/>
<path class="st0" d="M512.9,58.9l0,4.6l6.1,0.5c6.6,0.7,15.2,2.3,19.3,6.1c2.3,2.1,4.3,5.1,2.8,10l-38.3,101L468,88.3
	c-2.4-6.2-3.2-9-3.2-12.5c0-6,5.2-10.5,12-11.2l13.1-1l0-4.8l-81.7,0v4.8l8.3,0.4c7.9,0.4,12.2,0.1,17.4,5.8
	c3.9,4.4,1.7,10.1,1.7,10.3c-0.1,0.1-38.5,101.4-38.5,101.4l-34.2-93.2c-2.5-6.2-3.6-10.1-3.6-13.6c0.3-6.7,6.6-9.3,10.8-10
	c4.1-0.8,10.5-0.9,10.5-0.9l0-4.9l-80.3,0l0,4.8c0,0,5.4,0.1,12.6,0.9c7.2,0.9,12.2,5.2,17.4,19.1l51.3,137.8l1.7,4.4h2.6l1.8-4.4
	l52-132.9l47.9,132.6c0,0,2,4.8,1.8,4.7c-0.1-0.1,3.3,0,3.3,0l1.6-4.4L543.4,97l4.4-9.6c3.1-7.2,4.2-8.8,6.2-12.3
	c3.5-6.3,11-8.4,21-10.1c6-1.2,8.9-1,12.6-1.4l-0.1-4.7L512.9,58.9z"/>
<path class="st0" d="M199.3,220.7c-14.2,0-27.2-15.2-37.4-27.7L87.7,83l43.1-49.1c14.6-15.3,22.9-22.4,40.1-23.8l9.1-0.7l0-5.2
	l-76.3,0.1l0,5.6c0,0,4.1,0,7.5,0.4c7.2,0.4,14.4,4.2,14.3,10.7c-0.1,7.6-6.5,14.2-13.7,21.8l-58.1,64.8l0-71.1
	c0-23.2,10.8-25.4,14.1-25.9c5.5-0.8,9.6-0.9,9.6-0.9l0-5.4L1.6,4.4l0.1,5.2c0,0,5.3,0.1,10.5,0.5c5.2,0.5,13.1,3.2,13.1,26.4v158.8
	c0,23.1-5.2,25.6-19.3,25.6l-4.3,0l0.1,6l77,0l-0.1-6.2l-4.8-0.1c-14.2,0-20.4-2.2-20.4-25.4v-74.5l13.8-15.2l67.9,100.1
	c0,0,1.6,2.1,1.8,4.1c0.2,2-0.3,4.6-1.7,6.4c-2.5,3.1-7.2,4.6-16.2,4.6h-1c-2.6,0-3.3,0-3.3,0v6.1h89.5l0-6L199.3,220.7z"/>
</svg>
